<svg xmlns="http://www.w3.org/2000/svg" viewBox="0 0 256 256" role="img" aria-labelledby="falconTitle falconDesc">
  <title id="falconTitle">Falcon</title>
  <desc id="falconDesc">Stylized falcon emblem in monochrome.</desc>
  <g fill="none" stroke="#111" stroke-width="10" stroke-linecap="round" stroke-linejoin="round">
    <path d="M28 94c38 1 62-11 88-44 12-15 29-24 51-30-13 23-30 42-48 58" />
    <path d="M30 100c40 12 68 9 95-6 13-8 24-20 35-36-1 24-7 45-18 62" />
    <path d="M44 132c34 7 59 5 81-6 11-5 21-13 32-26-4 25-12 45-27 61" />
    <path d="M74 168c24 2 41-2 57-10 10-5 18-12 27-21-4 20-12 37-26 51" />
    <path d="M106 206c15 0 28-4 41-12 7-4 13-10 19-16-2 16-10 31-22 44" />
  </g>
  <circle cx="172" cy="58" r="7" fill="#111" />
</svg>
