<svg xmlns="http://www.w3.org/2000/svg" viewBox="0 0 256 256" role="img" aria-labelledby="falconTitle falconDesc">
  <title id="falconTitle">Falcon</title>
  <desc id="falconDesc">Stylized falcon emblem in monochrome.</desc>
  <g fill="none" stroke="#111" stroke-width="10" stroke-linecap="round" stroke-linejoin="round">
    <path d="M28 94c38 1 62-11 88-44 12-15 29-24 51-30-13 23-30 42-48 58" />
    <path d="M30 100c40 12 68 9 95-6 13-8 24-20 35-36-1 24-7 45-18 62" />
    <path d="M44 132c34 7 59 5 81-6 11-5 21-13 32-26-4 25-12 45-27 61" />
    <path d="M74 168c24 2 41-2 57-10 10-5 18-12 27-21-4 20-12 37-26 51" />
    <path d="M106 206c15 0 28-4 41-12 7-4 13-10 19-16-2 16-10 31-22 44" />
  </g>
  <circle cx="172" cy="58" r="7" fill="#111" />
</svg>
<?xml version="1.0" encoding="UTF-8"?>
<svg id="_Слой_1" data-name="Слой 1" xmlns="http://www.w3.org/2000/svg" viewBox="0 0 100 100">
  <defs>
    <style>
      .cls-1 {
        fill: #fff;
      }
    </style>
  </defs>
  <rect class="cls-1" x="0" y="0" width="100" height="100" rx="50" ry="50"/>
  <g id="kHuk2d.tif">
    <g>
      <path d="M24.61,74.38s-.13-.15-.21-.12l-2.08.52-3.56.28c-1.05-.11-2.48.06-3.48-.1-.79-.12-1.59-1.17-1.44-1.96.21-1.08,2.16-2.29,2.99-3.07.36-.34.78-.75,1.11-1.11.28-.31,1.65-1.95,1.55-2.26-1.26-1.09-2.79-1.8-4.3-2.48-.83-.37-2.19-.61-2.66-1.44-1.04-1.82,1.25-2.65,2.37-3.47,5.91-4.3,7.53-8.35,8.52-15.47,1.15-8.25,1.32-16.74,8.35-22.42,3.47-2.8,8.77-4.55,13.2-4.82,1.07-.06,2.47.15,3.47,0,.58-.09,1.61-.57,2.3-.74,4.07-1.02,8.4-.86,12.22.95,8.11,3.84,9.69,14.6,12.49,22.2.95,2.58,2.9,7,6.02,7.45.93.13,1.89-.26,2.65.47.94.91.34,2.23-.21,3.18-.61,1.05-1.47,1.83-2.42,2.57,2.73,1.98,4.93,4.87,5.84,8.16.26.95.66,2.15-.06,2.98-.92,1.06-3.37.5-4.62.5-.02.15.03.28.06.43.36,1.46,1.99,4.48,1.9,5.77-.06.87-.88,1.55-1.74,1.57-.36,0-.72-.16-1.07-.18-2.37-.19-5.04-.18-7.18.94,3.48,1.64,7.27,3.45,9.81,6.42.97,1.13,2.58,4.12,1.15,5.34-.89.76-2.21.49-2.71-.57-.46-.97-.34-1.59-1.16-2.59-2.91-3.55-10.35-6.33-14.68-7.8-.83-.28-3.18-.8-3.7-1.3-.88-.85-.43-1.93-.02-2.87.91-2.08,2.41-3.93,3.96-5.56-.35-.82-2.55-1.85-1.49-2.85s2.34,1.7,2.88,1.55c.09-.03.59-.42.6-.57-.27-.69-1.37-1.59-1.12-2.37.14-.43.57-.59.99-.54.7.1,1.28,1.8,1.6,1.79l1.21-.86c.07-.43-2.04-1.54-1.01-2.45.92-.82,1.94.85,2.58,1.33l1.07-.69c.03-.19-1.18-1.13-1.4-1.29-1.59-1.16-3.32-1.86-5.22-2.37l-.35.09c-.88.92-1.81,1.8-2.9,2.47-1.07,8.01-5.05,18.3-15.09,16.24-6.65-1.36-10.36-8.17-11.93-14.21-1.46-.74-2.78-1.47-3.98-2.62-.19-.19-.55-.77-.76-.86-.44-.18-3.11,1.14-3.64,1.44-1.01.57-2.73,1.65-3.54,2.44-.1.1-.25.19-.22.36.43.06.97.59,1.38.54.7-.1,2.27-2.17,3.07-1.02s-.95,1.45-1.2,1.9c-.12.23.81.69.9.69.28,0,1.49-1.06,1.92-1.18.91-.25,1.5.74.86,1.44-.16.18-.99.57-.95.78l1.2.83c.42.03,1.2-1.97,2.23-1.22s-.22,1.56-.64,2.19c-.02.14.71.72.84.75.35.07,1.11-1.15,1.53-1.28.57-.18,1.14.04,1.22.67.12.92-1.36,1.33-1.2,1.9,1.38,1.3,3.19,3.2,3.51,5.14s-2.12,2.4-3.54,3.06c-4.95,2.32-9.43,4.82-13.28,8.76-.41.42-.51.86-1.16,1.07-1.47.49-2.76-.84-2.2-2.29.15-.39.78-1.07,1.09-1.41,1.03-1.15,2.26-2.09,3.44-3.08v-3.66ZM60.97,23.46c-.35.35-1,.28-1.29-.11l-2.1-4.68c-.24-.16-2.03-.19-2.41-.17-.35.02-1.29.1-1.59.19-.09.03-.17.1-.14.2l2.63,4.6c.12.88-.91,1.46-1.52.72-.96-1.43-1.65-3.03-2.57-4.47-.15-.23-.33-.64-.63-.61-.2.01-1.11.34-1.36.43-.19.07-.96.33-.98.5.63,2.67,1.86,5.11,3.43,7.34,3.65,5.17,9.66,9.34,15.61,11.42,1.24.43,2.61.37,2.78,2.03.21,2.09,0,5.92-.38,8-.16.88-.51,1.7-.69,2.57,3.16.78,6.4,2.69,8.57,5.13,2.37,2.66.07,3.22-1.9,4.52-2.69,1.78-5.48,3.79-7.55,6.27-.26.31-1.73,2.25-1.69,2.48.02.1.14.18.24.21l3.1,1c2.83-2.1,6.37-2.79,9.85-2.76-.64-2.22-1.69-4.31-2.23-6.55.58-2.97,3.54-.9,5.45-1.03.15-.15-.7-1.69-.86-1.95-1.09-1.82-2.7-3.25-4.53-4.3-1.29-.74-3.9-1.33-2.9-3.4.59-1.23,2.17-.82,3.22-.97.23-.03,1.62-.49,1.32-.78-.9-.08-1.87-.75-2.58-1.3-4.64-3.59-6.18-11.98-8.08-17.34-1.7-4.78-3.97-10-9.32-11.51-.02.13.01.24.04.36.24.87,1.14,2.21,1.29,2.99.06.32.03.75-.2.99ZM28,71.26v4.5c2.65-1.55,5.38-2.97,8.2-4.2-.77-1.54-2.28-2.75-3.66-3.78-2-1.48-4.38-2.87-6.59-4.02-1.42-.74-3.14-1.36-4.46-2.14-.79-.46-1.19-1.21-.88-2.14.23-.7,2.53-2.59,3.21-3.12,2.22-1.72,4.72-3.11,7.4-3.98-1.03-2.62-1.18-5.47-1.52-8.25.07-.49.27-1.07.67-1.38.33-.26.75-.3,1.12-.58.89-.67,2.4-2.34,3.21-3.21,4.04-4.33,8.4-10.49,9.94-16.28.06-.23.66-2.76.44-2.77-.47.16-1.97.08-2.28.4-.16.16-.58,1.25-.75,1.57-.85,1.63-2.14,4.18-3.27,5.56-.75.91-1.76.57-1.66-.59.77-1.25,1.6-2.47,2.31-3.75.17-.3,1.25-2.24,1.14-2.38-1.18.34-2.37.67-3.45,1.28l-3.78,7.51c-.67.55-1.48,0-1.42-.79l2.4-5.05c-7.11,5.27-6.41,15.27-7.87,23.12-1.02,5.48-3.35,9.63-7.47,13.31-.21.18-1.38,1.06-1.42,1.16-.03.08-.04.16.06.22.54.35,1.4.65,2.02,1,.85.49,1.88,1.13,2.64,1.73,1.07.84,1.38,1.26.96,2.64-.53,1.75-1.7,3.21-2.92,4.53,1.26-.02,2.65-.25,3.85-.65,1.05-.35,1.99-1.19,3.1-.46.25.16.67.7.72.98ZM51.52,34.61c-.39.33-.78.38-1.18.04-.98-.86.72-2.05,1.1-2.83l-1.01-1.28c-.48.44-.88,1.13-1.63.82-1.18-.48,0-1.83.58-2.29-.29-.57-.7-1.07-1.03-1.62-.18-.3-.72-1.49-.87-1.63-.11-.1-.16-.11-.31-.09-.08.56-.36,1.16-.58,1.69-2.77,6.52-7.4,12.04-12.39,16.95-.31.31-.84.53-.86,1.02-.02.56.27,2.03.39,2.66.24,1.29.69,3.34,1.33,4.46.16.28.77,1.15,1.01,1.31.09.06.09.13.23.04.31-.2.73-1.39,1.25-1.69.7-.4,1.41.26,1.22,1.04-.11.46-1.08,1.43-1.13,1.73-.04.22.41.36.57.38.79-.47,1.72-3.21,2.89-2.18,1.07.94-1.32,2.54-1.2,3.08.05.22.52.55.67.75.64.84.95,2.91,1.34,4.01,1.29,3.6,4.28,8.02,8.27,8.86,5.26,1.11,7.94-2.46,9.58-6.87.77-2.08,1.22-4.26,1.55-6.44l-.11-.22c-.61-.43-3.19-1.62-3.38-2.22-.2-.63.3-1.28.96-1.15s2.72,1.79,3.13,1.75c.24-.21.9-.42,1.07-.6.08-.08.07-.11.06-.22-.45-.36-1.95-1.21-1.86-1.86.08-.57.67-.92,1.23-.73s1.55,1.34,2.03,1.45c.2.05.3-.13.43-.25,1.52-1.55,2.21-3.81,2.36-5.93l.14-4.24c-.09-.17-1.83-.72-2.17-.86-2.38-.99-4.64-2.23-6.79-3.65-.35-.08-.79,1.91-1.96,1.25s.6-1.98.33-2.43l-1.46-1.09c-.13.74-.91,1.52-1.6.8-.65-.67.13-1.34.12-2.08l-1.11-1.13c-.23-.04-.99,1.27-1.22,1.48Z"/>
      <path d="M60.61,74.21c-.28.43-1.83,1.7-2.29,2.03-3.81,2.78-8.25,2.97-12.36.69-.58-.32-2.42-1.51-2.71-2.02-.42-.74.22-1.46,1.01-1.28.27.06,1.57,1.21,2,1.48,4.16,2.58,8.26,2.2,11.93-.97.36-.31,1.17-1.31,1.54-1.4.9-.24,1.38.69.88,1.46Z"/>
      <path d="M41.44,76.89c-1.24.45-2.5.8-3.72,1.32-2.99,1.3-5.63,3.26-8.14,5.31-.57.46-1.61,1.84-2.39,1.02s.57-1.72,1.16-2.23c2.87-2.5,6.72-5.11,10.33-6.35.53-.18,1.59-.56,2.11-.57.91-.02,1.18.84.64,1.5Z"/>
      <path d="M63.57,74.71c.51-.12,2.05.31,2.61.47,2.59.77,6.76,3.07,8.74,4.9.89.83.37,1.86-.77,1.57-2.75-2.1-5.68-4-9.03-4.98-.83-.24-2.4-.13-2.16-1.41.04-.22.39-.51.6-.56Z"/>
      <path d="M63.82,78.66c.96.87,2.05,2.02,2.94,2.99.43.47,1.25,1.26,1.56,1.74.6.92-.45,1.87-1.36,1.12-.56-.46-1.34-1.56-1.9-2.14-.86-.89-1.78-1.82-2.67-2.68-.34-.33-1.36-1.03-1.57-1.31-.43-.59-.05-1.44.67-1.44.52,0,1.89,1.32,2.33,1.72Z"/>
      <path d="M37.49,83.03c-.46.44-1,1.22-1.42,1.57-.79.67-1.88-.24-1.28-1.19.85-1.35,3.94-3.92,5.31-4.86.29-.2.97-.71,1.27-.78.87-.2,1.43.72.85,1.39-1.68,1.17-3.26,2.46-4.74,3.87Z"/>
      <path d="M58.31,79.26c.22-.03.46,0,.64.12.36.23.6,1.64.79,2.15.24.64.9,1.56,1.04,2.08.29,1.05-.91,1.61-1.56.76-.45-.59-1.48-2.95-1.58-3.68-.09-.62-.09-1.32.67-1.43Z"/>
      <path d="M42.96,83.85c-.55.51-1.45.02-1.49-.65-.02-.31.65-1.68.85-1.99.33-.49,1.56-1.75,2.11-1.91.78-.22,1.3.52.99,1.26-.1.24-1.18.97-1.49,1.37-.39.5-.71,1.68-.97,1.93Z"/>
      <path d="M48.31,80.69c1.22-.28,1.45,1.36.57,1.63-1.2.37-1.61-1.39-.57-1.63Z"/>
      <path d="M53.77,60.43c-.53.02-3.56.18-3.78.44l-1.36,4.79c-.39,1.09-1.1.9-1.84.29s-1.35-1.69-1.66-2.63c-.09-.28-.26-1.31-.34-1.42-.08-.12-.84.03-.91-.72-.09-1,1-1.16,1.77-1.36,3.74-.95,7.7-1.3,11.56-1.24.34,0,1.24,0,1.51.08.36.09.68.62.58.98-.63,1.61-.85,3.97-1.57,5.48s-2.19-.36-2.66-1.12c-.67-1.08-1.02-2.34-1.29-3.57ZM57.26,60.33h-1.69c.08.49.21.98.39,1.44.08.21.42,1.05.64,1.06l.67-2.5ZM48.07,61.14c-.33,0-1.51.17-1.59.51-.05.21.55,1.95.7,2.08.2.07.26-.21.31-.36.25-.71.4-1.49.58-2.23Z"/>
      <path d="M46.01,46.88l-1.32-.64c-.65,2.74-4.41,1.88-3.75-.89-.15-.17-2.7-.22-3.16-.28-1.26-.18-1.05-1.7.06-1.75,2.11-.08,6.91.63,8.71,1.72.41.25,1.22.82,1.26,1.33-.42,2.59-.97,5.2-.63,7.85.03.21.16,1.03.45.99l4.68-1.93c.87-.03,1.23.98.54,1.53l-5.75,2.46c-1.26.2-1.65-2.9-1.7-3.75-.13-2.23.24-4.45.61-6.63Z"/>
      <path d="M55.95,45.85c-.16-.16-.34-.45-.4-.68h-.12c-.83.19-2.27,2.22-3.04,1.07-.65-.97.95-1.84,1.63-2.31,1.82-1.25,5.17-2.87,7.39-2.88.69,0,1.12.5.92,1.19-.18.61-1.81.66-2.41.8-.18.04-.95.24-1.01.33.44,1.16.4,2.34-.9,2.84-.75.28-1.46.22-2.04-.37Z"/>
      <path d="M42.79,39.92c1.13-.16,1.34,1.45.4,1.66-1.25.28-1.51-1.5-.4-1.66Z"/>
      <path d="M63.74,28.95c1.41-.32,1.43,1.85.09,1.66-.9-.13-.95-1.46-.09-1.66Z"/>
      <path class="cls-1" d="M57.26,60.33l-.67,2.5c-.22,0-.56-.84-.64-1.06-.18-.46-.31-.95-.39-1.44h1.69Z"/>
      <path class="cls-1" d="M48.07,61.14c-.18.73-.34,1.51-.58,2.23-.05.15-.11.42-.31.36-.15-.13-.75-1.87-.7-2.08.08-.33,1.27-.52,1.59-.51Z"/>
    </g>
  </g>
</svg>